{
  "accessors": [
    {
      "bufferView": 2,
      "componentType": 5126,
      "count": 6557,
      "max": [
        0.4383639991283417,
        1.209909439086914,
        0.4443357288837433
      ],
      "min": [
        -0.4383639991283417,
        -0.0025781989097595215,
        -0.3188242018222809
      ],
      "type": "VEC3"
    },
    {
      "bufferView": 2,
      "byteOffset": 78684,
      "componentType": 5126,
      "count": 6557,
      "max": [
        1.0,
        1.0,
        1.0
      ],
      "min": [
        -1.0,
        -1.0,
        -1.0
      ],
      "type": "VEC3"
    },
    {
      "bufferView": 3,
      "componentType": 5126,
      "count": 6557,
      "max": [
        1.0,
        1.0,
        1.0,
        1.0
      ],
      "min": [
        -1.0,
        -1.0,
        -1.0,
        -1.0
      ],
      "type": "VEC4"
    },
    {
      "bufferView": 1,
      "componentType": 5126,
      "count": 6557,
      "max": [
        0.9952391386032104,
        0.9955320358276367
      ],
      "min": [
        0.004467964172363281,
        0.004467964172363281
      ],
      "type": "VEC2"
    },
    {
      "bufferView": 1,
      "byteOffset": 52456,
      "componentType": 5126,
      "count": 6557,
      "max": [
        0.9952391386032104,
        0.9955320358276367
      ],
      "min": [
        0.004467964172363281,
        0.004467964172363281
      ],
      "type": "VEC2"
    },
    {
      "bufferView": 1,
      "byteOffset": 104912,
      "componentType": 5126,
      "count": 6557,
      "max": [
        0.9952391386032104,
        0.9955320358276367
      ],
      "min": [
        0.004467964172363281,
        0.004467964172363281
      ],
      "type": "VEC2"
    },
    {
      "bufferView": 1,
      "byteOffset": 157368,
      "componentType": 5126,
      "count": 6557,
      "max": [
        0.9952391386032104,
        0.9955320358276367
      ],
      "min": [
        0.004467964172363281,
        0.004467964172363281
      ],
      "type": "VEC2"
    },
    {
      "bufferView": 0,
      "componentType": 5125,
      "count": 19872,
      "type": "SCALAR"
    }
  ],
  "asset": {
    "extras": {
      "author": "Glowbox 3D (https://sketchfab.com/ra3id)",
      "license": "CC-BY-4.0 (http://creativecommons.org/licenses/by/4.0/)",
      "source": "https://sketchfab.com/3d-models/generic-soda-dispenser-46a201367ac24a4da0772ae8b8e16bfb",
      "title": "Generic Soda Dispenser"
    },
    "generator": "Sketchfab-14.35.0",
    "version": "2.0"
  },
  "bufferViews": [
    {
      "buffer": 0,
      "byteLength": 79488,
      "name": "floatBufferViews",
      "target": 34963
    },
    {
      "buffer": 0,
      "byteLength": 209824,
      "byteOffset": 79488,
      "byteStride": 8,
      "name": "floatBufferViews",
      "target": 34962
    },
    {
      "buffer": 0,
      "byteLength": 157368,
      "byteOffset": 289312,
      "byteStride": 12,
      "name": "floatBufferViews",
      "target": 34962
    },
    {
      "buffer": 0,
      "byteLength": 104912,
      "byteOffset": 446680,
      "byteStride": 16,
      "name": "floatBufferViews",
      "target": 34962
    }
  ],
  "buffers": [
    {
      "byteLength": 551592,
      "uri": "scene.bin"
    }
  ],
  "images": [
    {
      "uri": "textures/T_SodaDispenser_baseColor.png"
    },
    {
      "uri": "textures/T_SodaDispenser_metallicRoughness.png"
    },
    {
      "uri": "textures/T_SodaDispenser_normal.png"
    }
  ],
  "materials": [
    {
      "doubleSided": true,
      "name": "T_SodaDispenser",
      "normalTexture": {
        "index": 2,
        "texCoord": 2
      },
      "pbrMetallicRoughness": {
        "baseColorTexture": {
          "index": 0
        },
        "metallicRoughnessTexture": {
          "index": 1,
          "texCoord": 1
        }
      }
    }
  ],
  "meshes": [
    {
      "name": "Object_0",
      "primitives": [
        {
          "attributes": {
            "NORMAL": 1,
            "POSITION": 0,
            "TANGENT": 2,
            "TEXCOORD_0": 3,
            "TEXCOORD_1": 4,
            "TEXCOORD_2": 5,
            "TEXCOORD_3": 6
          },
          "indices": 7,
          "material": 0,
          "mode": 4
        }
      ]
    }
  ],
  "nodes": [
    {
      "children": [
        1
      ],
      "matrix": [
        1.0,
        0.0,
        0.0,
        0.0,
        0.0,
        2.220446049250313e-16,
        -1.0,
        0.0,
        0.0,
        1.0,
        2.220446049250313e-16,
        0.0,
        0.0,
        0.0,
        0.0,
        1.0
      ],
      "name": "Sketchfab_model"
    },
    {
      "children": [
        2
      ],
      "name": "root"
    },
    {
      "children": [
        3
      ],
      "matrix": [
        1.0,
        0.0,
        0.0,
        0.0,
        0.0,
        2.220446049250313e-16,
        1.0,
        0.0,
        0.0,
        -1.0,
        2.220446049250313e-16,
        0.0,
        0.0,
        0.0,
        0.0,
        1.0
      ],
      "name": "GLTF_SceneRootNode"
    },
    {
      "children": [
        4
      ],
      "name": "Soda Box.005_0"
    },
    {
      "mesh": 0,
      "name": "Object_4"
    }
  ],
  "samplers": [
    {
      "magFilter": 9729,
      "minFilter": 9987,
      "wrapS": 10497,
      "wrapT": 10497
    }
  ],
  "scene": 0,
  "scenes": [
    {
      "name": "Sketchfab_Scene",
      "nodes": [
        0
      ]
    }
  ],
  "textures": [
    {
      "sampler": 0,
      "source": 0
    },
    {
      "sampler": 0,
      "source": 1
    },
    {
      "sampler": 0,
      "source": 2
    }
  ]
}
